<mxfile host="app.diagrams.net" modified="2023-08-23T15:27:26.543Z" agent="Mozilla/5.0 (Macintosh; Intel Mac OS X 10_15_7) AppleWebKit/537.36 (KHTML, like Gecko) Chrome/114.0.0.0 Safari/537.36" etag="1A3nDa6Pde6nfoX0zsJJ" version="21.6.9" type="device">
  <diagram name="Page-1" id="BEE_PI4ZTQYsDp6mw7uW">
    <mxGraphModel dx="2390" dy="1275" grid="1" gridSize="10" guides="1" tooltips="1" connect="1" arrows="1" fold="1" page="1" pageScale="1" pageWidth="827" pageHeight="1169" math="0" shadow="0">
      <root>
        <mxCell id="0" />
        <mxCell id="1" parent="0" />
        <mxCell id="K29Ckt8CjFFlXVH_8B9p-33" value="" style="rounded=1;whiteSpace=wrap;html=1;" vertex="1" parent="1">
          <mxGeometry x="270" y="50" width="360" height="1060" as="geometry" />
        </mxCell>
        <mxCell id="K29Ckt8CjFFlXVH_8B9p-1" value="Input batch&lt;br&gt;[bs, audio_sample_size]" style="rounded=0;whiteSpace=wrap;html=1;" vertex="1" parent="1">
          <mxGeometry x="370" y="130" width="160" height="60" as="geometry" />
        </mxCell>
        <mxCell id="K29Ckt8CjFFlXVH_8B9p-2" value="Convolution Layer&lt;br&gt;[bs, n_grains, l_grain]" style="rounded=1;whiteSpace=wrap;html=1;" vertex="1" parent="1">
          <mxGeometry x="370" y="240" width="160" height="60" as="geometry" />
        </mxCell>
        <mxCell id="K29Ckt8CjFFlXVH_8B9p-3" value="" style="endArrow=classic;html=1;rounded=0;exitX=0.5;exitY=1;exitDx=0;exitDy=0;entryX=0.5;entryY=0;entryDx=0;entryDy=0;" edge="1" parent="1" source="K29Ckt8CjFFlXVH_8B9p-1" target="K29Ckt8CjFFlXVH_8B9p-2">
          <mxGeometry width="50" height="50" relative="1" as="geometry">
            <mxPoint x="500" y="420" as="sourcePoint" />
            <mxPoint x="550" y="370" as="targetPoint" />
          </mxGeometry>
        </mxCell>
        <mxCell id="K29Ckt8CjFFlXVH_8B9p-4" value="Multiply with Windows&lt;br&gt;and Reshape&lt;br&gt;[bs*n_grains, 1, l_grain]" style="rounded=1;whiteSpace=wrap;html=1;" vertex="1" parent="1">
          <mxGeometry x="370" y="350" width="160" height="60" as="geometry" />
        </mxCell>
        <mxCell id="K29Ckt8CjFFlXVH_8B9p-5" value="" style="endArrow=classic;html=1;rounded=0;exitX=0.5;exitY=1;exitDx=0;exitDy=0;entryX=0.5;entryY=0;entryDx=0;entryDy=0;" edge="1" parent="1" source="K29Ckt8CjFFlXVH_8B9p-2" target="K29Ckt8CjFFlXVH_8B9p-4">
          <mxGeometry width="50" height="50" relative="1" as="geometry">
            <mxPoint x="500" y="420" as="sourcePoint" />
            <mxPoint x="550" y="370" as="targetPoint" />
          </mxGeometry>
        </mxCell>
        <mxCell id="K29Ckt8CjFFlXVH_8B9p-11" value="" style="group" vertex="1" connectable="0" parent="1">
          <mxGeometry x="330" y="441" width="200" height="100" as="geometry" />
        </mxCell>
        <mxCell id="K29Ckt8CjFFlXVH_8B9p-7" value="" style="rounded=1;whiteSpace=wrap;html=1;" vertex="1" parent="K29Ckt8CjFFlXVH_8B9p-11">
          <mxGeometry x="10" y="10" width="160" height="60" as="geometry" />
        </mxCell>
        <mxCell id="K29Ckt8CjFFlXVH_8B9p-8" value="" style="rounded=1;whiteSpace=wrap;html=1;" vertex="1" parent="K29Ckt8CjFFlXVH_8B9p-11">
          <mxGeometry x="20" y="20" width="160" height="60" as="geometry" />
        </mxCell>
        <mxCell id="K29Ckt8CjFFlXVH_8B9p-9" value="" style="rounded=1;whiteSpace=wrap;html=1;" vertex="1" parent="K29Ckt8CjFFlXVH_8B9p-11">
          <mxGeometry x="30" y="30" width="160" height="60" as="geometry" />
        </mxCell>
        <mxCell id="K29Ckt8CjFFlXVH_8B9p-10" value="Stacked Dilated Conv Layers&lt;br&gt;[bs*n_grains, channels, out_width]" style="rounded=1;whiteSpace=wrap;html=1;" vertex="1" parent="K29Ckt8CjFFlXVH_8B9p-11">
          <mxGeometry x="40" y="40" width="160" height="60" as="geometry" />
        </mxCell>
        <mxCell id="K29Ckt8CjFFlXVH_8B9p-12" value="" style="endArrow=classic;html=1;rounded=0;entryX=0.5;entryY=0;entryDx=0;entryDy=0;exitX=0.5;exitY=1;exitDx=0;exitDy=0;" edge="1" parent="1" source="K29Ckt8CjFFlXVH_8B9p-4" target="K29Ckt8CjFFlXVH_8B9p-10">
          <mxGeometry width="50" height="50" relative="1" as="geometry">
            <mxPoint x="500" y="420" as="sourcePoint" />
            <mxPoint x="550" y="370" as="targetPoint" />
          </mxGeometry>
        </mxCell>
        <mxCell id="K29Ckt8CjFFlXVH_8B9p-13" value="Reshape&lt;br&gt;[bs*n_grains, channels*out_width]" style="rounded=1;whiteSpace=wrap;html=1;" vertex="1" parent="1">
          <mxGeometry x="370" y="585" width="160" height="60" as="geometry" />
        </mxCell>
        <mxCell id="K29Ckt8CjFFlXVH_8B9p-14" value="" style="endArrow=classic;html=1;rounded=0;entryX=0.5;entryY=0;entryDx=0;entryDy=0;" edge="1" parent="1" target="K29Ckt8CjFFlXVH_8B9p-13">
          <mxGeometry width="50" height="50" relative="1" as="geometry">
            <mxPoint x="450" y="540" as="sourcePoint" />
            <mxPoint x="550" y="370" as="targetPoint" />
          </mxGeometry>
        </mxCell>
        <mxCell id="K29Ckt8CjFFlXVH_8B9p-19" value="" style="rounded=1;whiteSpace=wrap;html=1;" vertex="1" parent="1">
          <mxGeometry x="340" y="670" width="160" height="60" as="geometry" />
        </mxCell>
        <mxCell id="K29Ckt8CjFFlXVH_8B9p-20" value="" style="rounded=1;whiteSpace=wrap;html=1;" vertex="1" parent="1">
          <mxGeometry x="350" y="680" width="160" height="60" as="geometry" />
        </mxCell>
        <mxCell id="K29Ckt8CjFFlXVH_8B9p-21" value="" style="rounded=1;whiteSpace=wrap;html=1;" vertex="1" parent="1">
          <mxGeometry x="360" y="690" width="160" height="60" as="geometry" />
        </mxCell>
        <mxCell id="K29Ckt8CjFFlXVH_8B9p-22" value="Linear Layers&lt;br&gt;[bs*n_grains, z_dim]" style="rounded=1;whiteSpace=wrap;html=1;" vertex="1" parent="1">
          <mxGeometry x="370" y="700" width="160" height="60" as="geometry" />
        </mxCell>
        <mxCell id="K29Ckt8CjFFlXVH_8B9p-25" value="" style="endArrow=classic;html=1;rounded=0;entryX=0.5;entryY=0;entryDx=0;entryDy=0;exitX=0.5;exitY=1;exitDx=0;exitDy=0;" edge="1" parent="1" source="K29Ckt8CjFFlXVH_8B9p-13" target="K29Ckt8CjFFlXVH_8B9p-22">
          <mxGeometry width="50" height="50" relative="1" as="geometry">
            <mxPoint x="500" y="480" as="sourcePoint" />
            <mxPoint x="550" y="430" as="targetPoint" />
          </mxGeometry>
        </mxCell>
        <mxCell id="K29Ckt8CjFFlXVH_8B9p-26" value="Linear + HardTanh&lt;br&gt;&lt;b&gt;log variance&lt;br&gt;&lt;/b&gt;[bs*n_grains, z_dim]" style="rounded=1;whiteSpace=wrap;html=1;" vertex="1" parent="1">
          <mxGeometry x="470" y="810" width="120" height="60" as="geometry" />
        </mxCell>
        <mxCell id="K29Ckt8CjFFlXVH_8B9p-27" value="Linear Layer&lt;br&gt;&lt;b&gt;mu&lt;br&gt;&lt;/b&gt;[bs*n_grains, z_dim]" style="rounded=1;whiteSpace=wrap;html=1;" vertex="1" parent="1">
          <mxGeometry x="310" y="810" width="120" height="60" as="geometry" />
        </mxCell>
        <mxCell id="K29Ckt8CjFFlXVH_8B9p-28" value="" style="endArrow=classic;html=1;rounded=0;entryX=0.5;entryY=0;entryDx=0;entryDy=0;exitX=0.5;exitY=1;exitDx=0;exitDy=0;" edge="1" parent="1" source="K29Ckt8CjFFlXVH_8B9p-22" target="K29Ckt8CjFFlXVH_8B9p-27">
          <mxGeometry width="50" height="50" relative="1" as="geometry">
            <mxPoint x="500" y="710" as="sourcePoint" />
            <mxPoint x="550" y="660" as="targetPoint" />
            <Array as="points">
              <mxPoint x="450" y="780" />
              <mxPoint x="370" y="780" />
            </Array>
          </mxGeometry>
        </mxCell>
        <mxCell id="K29Ckt8CjFFlXVH_8B9p-29" value="" style="endArrow=classic;html=1;rounded=0;exitX=0.5;exitY=1;exitDx=0;exitDy=0;entryX=0.5;entryY=0;entryDx=0;entryDy=0;" edge="1" parent="1" source="K29Ckt8CjFFlXVH_8B9p-22" target="K29Ckt8CjFFlXVH_8B9p-26">
          <mxGeometry width="50" height="50" relative="1" as="geometry">
            <mxPoint x="500" y="710" as="sourcePoint" />
            <mxPoint x="550" y="660" as="targetPoint" />
            <Array as="points">
              <mxPoint x="450" y="780" />
              <mxPoint x="530" y="780" />
            </Array>
          </mxGeometry>
        </mxCell>
        <mxCell id="K29Ckt8CjFFlXVH_8B9p-40" style="edgeStyle=orthogonalEdgeStyle;rounded=0;orthogonalLoop=1;jettySize=auto;html=1;exitX=0.5;exitY=1;exitDx=0;exitDy=0;entryX=0.5;entryY=0;entryDx=0;entryDy=0;" edge="1" parent="1" source="K29Ckt8CjFFlXVH_8B9p-30" target="K29Ckt8CjFFlXVH_8B9p-39">
          <mxGeometry relative="1" as="geometry" />
        </mxCell>
        <mxCell id="K29Ckt8CjFFlXVH_8B9p-30" value="Sample from Distribution&lt;br&gt;&lt;b&gt;z&lt;/b&gt;&lt;br&gt;[bs*n_grains, z_dim]" style="rounded=1;whiteSpace=wrap;html=1;" vertex="1" parent="1">
          <mxGeometry x="370" y="920" width="160" height="60" as="geometry" />
        </mxCell>
        <mxCell id="K29Ckt8CjFFlXVH_8B9p-31" value="" style="endArrow=classic;html=1;rounded=0;entryX=0.5;entryY=0;entryDx=0;entryDy=0;exitX=0.5;exitY=1;exitDx=0;exitDy=0;" edge="1" parent="1" source="K29Ckt8CjFFlXVH_8B9p-27" target="K29Ckt8CjFFlXVH_8B9p-30">
          <mxGeometry width="50" height="50" relative="1" as="geometry">
            <mxPoint x="500" y="630" as="sourcePoint" />
            <mxPoint x="550" y="580" as="targetPoint" />
            <Array as="points">
              <mxPoint x="370" y="890" />
              <mxPoint x="450" y="890" />
            </Array>
          </mxGeometry>
        </mxCell>
        <mxCell id="K29Ckt8CjFFlXVH_8B9p-32" value="" style="endArrow=classic;html=1;rounded=0;exitX=0.5;exitY=1;exitDx=0;exitDy=0;entryX=0.5;entryY=0;entryDx=0;entryDy=0;" edge="1" parent="1" source="K29Ckt8CjFFlXVH_8B9p-26" target="K29Ckt8CjFFlXVH_8B9p-30">
          <mxGeometry width="50" height="50" relative="1" as="geometry">
            <mxPoint x="460" y="830" as="sourcePoint" />
            <mxPoint x="460" y="920" as="targetPoint" />
            <Array as="points">
              <mxPoint x="530" y="890" />
              <mxPoint x="450" y="890" />
            </Array>
          </mxGeometry>
        </mxCell>
        <mxCell id="K29Ckt8CjFFlXVH_8B9p-35" value="&lt;font style=&quot;font-size: 18px;&quot;&gt;&lt;b&gt;Encoder&lt;/b&gt;&lt;/font&gt;" style="text;html=1;strokeColor=none;fillColor=none;align=center;verticalAlign=middle;whiteSpace=wrap;rounded=0;" vertex="1" parent="1">
          <mxGeometry x="300" y="70" width="80" height="40" as="geometry" />
        </mxCell>
        <mxCell id="K29Ckt8CjFFlXVH_8B9p-36" value="" style="rounded=1;whiteSpace=wrap;html=1;" vertex="1" parent="1">
          <mxGeometry x="740" y="50" width="360" height="1070" as="geometry" />
        </mxCell>
        <mxCell id="K29Ckt8CjFFlXVH_8B9p-37" value="&lt;font style=&quot;font-size: 18px;&quot;&gt;&lt;b&gt;Decoder&lt;br&gt;&lt;/b&gt;&lt;/font&gt;" style="text;html=1;strokeColor=none;fillColor=none;align=center;verticalAlign=middle;whiteSpace=wrap;rounded=0;" vertex="1" parent="1">
          <mxGeometry x="770" y="70" width="80" height="40" as="geometry" />
        </mxCell>
        <mxCell id="K29Ckt8CjFFlXVH_8B9p-39" value="Output&lt;br&gt;&lt;b&gt;z&lt;/b&gt;&lt;br&gt;[bs*n_grains, z_dim]" style="rounded=0;whiteSpace=wrap;html=1;" vertex="1" parent="1">
          <mxGeometry x="370" y="1010" width="160" height="60" as="geometry" />
        </mxCell>
        <mxCell id="K29Ckt8CjFFlXVH_8B9p-41" value="Input&lt;br&gt;&lt;b&gt;z&lt;/b&gt;&lt;br&gt;[bs*n_grains, z_dim]" style="rounded=0;whiteSpace=wrap;html=1;" vertex="1" parent="1">
          <mxGeometry x="840" y="130" width="160" height="60" as="geometry" />
        </mxCell>
        <mxCell id="K29Ckt8CjFFlXVH_8B9p-44" value="" style="group" vertex="1" connectable="0" parent="1">
          <mxGeometry x="800" y="200" width="200" height="100" as="geometry" />
        </mxCell>
        <mxCell id="K29Ckt8CjFFlXVH_8B9p-45" value="" style="rounded=1;whiteSpace=wrap;html=1;" vertex="1" parent="K29Ckt8CjFFlXVH_8B9p-44">
          <mxGeometry x="10" y="10" width="160" height="60" as="geometry" />
        </mxCell>
        <mxCell id="K29Ckt8CjFFlXVH_8B9p-46" value="" style="rounded=1;whiteSpace=wrap;html=1;" vertex="1" parent="K29Ckt8CjFFlXVH_8B9p-44">
          <mxGeometry x="20" y="20" width="160" height="60" as="geometry" />
        </mxCell>
        <mxCell id="K29Ckt8CjFFlXVH_8B9p-47" value="" style="rounded=1;whiteSpace=wrap;html=1;" vertex="1" parent="K29Ckt8CjFFlXVH_8B9p-44">
          <mxGeometry x="30" y="30" width="160" height="60" as="geometry" />
        </mxCell>
        <mxCell id="K29Ckt8CjFFlXVH_8B9p-48" value="Linear layers&lt;br&gt;&lt;b&gt;Filter (FIR) Coefficients&lt;/b&gt;&lt;br&gt;[bs*n_grains, filter_size]" style="rounded=1;whiteSpace=wrap;html=1;" vertex="1" parent="K29Ckt8CjFFlXVH_8B9p-44">
          <mxGeometry x="40" y="40" width="160" height="60" as="geometry" />
        </mxCell>
        <mxCell id="K29Ckt8CjFFlXVH_8B9p-50" style="edgeStyle=orthogonalEdgeStyle;rounded=0;orthogonalLoop=1;jettySize=auto;html=1;exitX=0.5;exitY=1;exitDx=0;exitDy=0;" edge="1" parent="1" source="K29Ckt8CjFFlXVH_8B9p-41" target="K29Ckt8CjFFlXVH_8B9p-48">
          <mxGeometry relative="1" as="geometry" />
        </mxCell>
        <mxCell id="K29Ckt8CjFFlXVH_8B9p-57" value="" style="edgeStyle=orthogonalEdgeStyle;rounded=0;orthogonalLoop=1;jettySize=auto;html=1;" edge="1" parent="1" source="K29Ckt8CjFFlXVH_8B9p-51" target="K29Ckt8CjFFlXVH_8B9p-56">
          <mxGeometry relative="1" as="geometry" />
        </mxCell>
        <mxCell id="K29Ckt8CjFFlXVH_8B9p-51" value="Modified Sigmoid&lt;br&gt;[bs*n_grains, filter_size]" style="rounded=1;whiteSpace=wrap;html=1;" vertex="1" parent="1">
          <mxGeometry x="840" y="330" width="160" height="60" as="geometry" />
        </mxCell>
        <mxCell id="K29Ckt8CjFFlXVH_8B9p-55" value="" style="edgeStyle=orthogonalEdgeStyle;rounded=0;orthogonalLoop=1;jettySize=auto;html=1;" edge="1" parent="1" source="K29Ckt8CjFFlXVH_8B9p-48" target="K29Ckt8CjFFlXVH_8B9p-51">
          <mxGeometry relative="1" as="geometry" />
        </mxCell>
        <mxCell id="K29Ckt8CjFFlXVH_8B9p-59" value="" style="edgeStyle=orthogonalEdgeStyle;rounded=0;orthogonalLoop=1;jettySize=auto;html=1;" edge="1" parent="1" source="K29Ckt8CjFFlXVH_8B9p-56" target="K29Ckt8CjFFlXVH_8B9p-58">
          <mxGeometry relative="1" as="geometry" />
        </mxCell>
        <mxCell id="K29Ckt8CjFFlXVH_8B9p-56" value="Noise Filtering&lt;br&gt;[bs*n_grains, l_grain]" style="rounded=1;whiteSpace=wrap;html=1;" vertex="1" parent="1">
          <mxGeometry x="840" y="420" width="160" height="60" as="geometry" />
        </mxCell>
        <mxCell id="K29Ckt8CjFFlXVH_8B9p-61" value="" style="edgeStyle=orthogonalEdgeStyle;rounded=0;orthogonalLoop=1;jettySize=auto;html=1;" edge="1" parent="1" source="K29Ckt8CjFFlXVH_8B9p-58" target="K29Ckt8CjFFlXVH_8B9p-60">
          <mxGeometry relative="1" as="geometry" />
        </mxCell>
        <mxCell id="K29Ckt8CjFFlXVH_8B9p-58" value="Reshape&lt;br&gt;[bs, n_grains, l_grain]" style="rounded=1;whiteSpace=wrap;html=1;" vertex="1" parent="1">
          <mxGeometry x="840" y="510" width="160" height="60" as="geometry" />
        </mxCell>
        <mxCell id="K29Ckt8CjFFlXVH_8B9p-63" value="" style="edgeStyle=orthogonalEdgeStyle;rounded=0;orthogonalLoop=1;jettySize=auto;html=1;" edge="1" parent="1" source="K29Ckt8CjFFlXVH_8B9p-60" target="K29Ckt8CjFFlXVH_8B9p-62">
          <mxGeometry relative="1" as="geometry" />
        </mxCell>
        <mxCell id="K29Ckt8CjFFlXVH_8B9p-60" value="Multiply with Windows&lt;br&gt;[bs, n_grains, l_grain]" style="rounded=1;whiteSpace=wrap;html=1;" vertex="1" parent="1">
          <mxGeometry x="840" y="610" width="160" height="60" as="geometry" />
        </mxCell>
        <mxCell id="K29Ckt8CjFFlXVH_8B9p-65" value="" style="edgeStyle=orthogonalEdgeStyle;rounded=0;orthogonalLoop=1;jettySize=auto;html=1;" edge="1" parent="1" source="K29Ckt8CjFFlXVH_8B9p-62" target="K29Ckt8CjFFlXVH_8B9p-64">
          <mxGeometry relative="1" as="geometry" />
        </mxCell>
        <mxCell id="K29Ckt8CjFFlXVH_8B9p-62" value="Fold&lt;br&gt;[bs, audio_sample_size]" style="rounded=1;whiteSpace=wrap;html=1;" vertex="1" parent="1">
          <mxGeometry x="840" y="710" width="160" height="60" as="geometry" />
        </mxCell>
        <mxCell id="K29Ckt8CjFFlXVH_8B9p-70" value="" style="edgeStyle=orthogonalEdgeStyle;rounded=0;orthogonalLoop=1;jettySize=auto;html=1;" edge="1" parent="1" source="K29Ckt8CjFFlXVH_8B9p-64" target="K29Ckt8CjFFlXVH_8B9p-66">
          <mxGeometry relative="1" as="geometry" />
        </mxCell>
        <mxCell id="K29Ckt8CjFFlXVH_8B9p-64" value="Normalize&lt;br&gt;[bs, audio_sample_size]" style="rounded=1;whiteSpace=wrap;html=1;" vertex="1" parent="1">
          <mxGeometry x="840" y="810" width="160" height="60" as="geometry" />
        </mxCell>
        <mxCell id="K29Ckt8CjFFlXVH_8B9p-72" value="" style="edgeStyle=orthogonalEdgeStyle;rounded=0;orthogonalLoop=1;jettySize=auto;html=1;" edge="1" parent="1" source="K29Ckt8CjFFlXVH_8B9p-66" target="K29Ckt8CjFFlXVH_8B9p-71">
          <mxGeometry relative="1" as="geometry" />
        </mxCell>
        <mxCell id="K29Ckt8CjFFlXVH_8B9p-71" value="Output&lt;br&gt;&lt;b&gt;Audio&lt;/b&gt;&lt;br&gt;[bs, audio_sample_size]" style="rounded=0;whiteSpace=wrap;html=1;" vertex="1" parent="1">
          <mxGeometry x="840" y="1030" width="160" height="60" as="geometry" />
        </mxCell>
        <mxCell id="K29Ckt8CjFFlXVH_8B9p-73" value="" style="group" vertex="1" connectable="0" parent="1">
          <mxGeometry x="750" y="900" width="340" height="100" as="geometry" />
        </mxCell>
        <mxCell id="K29Ckt8CjFFlXVH_8B9p-66" value="" style="rounded=1;whiteSpace=wrap;html=1;" vertex="1" parent="K29Ckt8CjFFlXVH_8B9p-73">
          <mxGeometry width="340" height="100" as="geometry" />
        </mxCell>
        <mxCell id="K29Ckt8CjFFlXVH_8B9p-67" value="Post Processing Layer" style="text;html=1;strokeColor=none;fillColor=none;align=center;verticalAlign=middle;whiteSpace=wrap;rounded=0;" vertex="1" parent="K29Ckt8CjFFlXVH_8B9p-73">
          <mxGeometry x="90" width="140" height="30" as="geometry" />
        </mxCell>
        <mxCell id="K29Ckt8CjFFlXVH_8B9p-68" value="&amp;nbsp;Reshape + Convolution Layer + Reshape&lt;br&gt;&lt;b&gt;conv in&lt;/b&gt; [bs, post_proc_channels, audio_sample_size]&lt;br&gt;&lt;b&gt;conv out&lt;/b&gt;&amp;nbsp;[bs, 1, audio_sample_size]&lt;br&gt;&lt;b&gt;out&lt;/b&gt; [bs, audio_sample_size]&amp;nbsp;" style="rounded=1;whiteSpace=wrap;html=1;" vertex="1" parent="K29Ckt8CjFFlXVH_8B9p-73">
          <mxGeometry x="10" y="30" width="320" height="60" as="geometry" />
        </mxCell>
      </root>
    </mxGraphModel>
  </diagram>
</mxfile>
